<?xml version="1.0" standalone="no"?>
<!DOCTYPE svg PUBLIC "-//W3C//DTD SVG 20010904//EN"
 "http://www.w3.org/TR/2001/REC-SVG-20010904/DTD/svg10.dtd">
<svg version="1.0" xmlns="http://www.w3.org/2000/svg"
 width="840.000000pt" height="536.000000pt" viewBox="0 0 840.000000 536.000000"
 preserveAspectRatio="xMidYMid meet">

<g transform="translate(0.000000,536.000000) scale(0.100000,-0.100000)"
fill="#000000" stroke="none">
<path d="M1815 4874 c-161 -24 -242 -61 -293 -136 -17 -24 -49 -57 -72 -73
-101 -70 -157 -199 -185 -425 -9 -74 -18 -144 -20 -155 -2 -12 -43 -53 -89
-93 -126 -107 -230 -240 -304 -388 -91 -180 -128 -325 -142 -562 -13 -212 -87
-645 -142 -832 -13 -43 -16 -45 -58 -51 -83 -11 -116 -87 -63 -149 l27 -32
-30 -55 c-16 -30 -51 -81 -77 -114 -57 -70 -77 -114 -77 -167 0 -78 68 -164
143 -179 l27 -6 -6 -176 c-15 -402 67 -641 273 -801 241 -185 517 -214 781
-81 186 94 393 283 593 540 l26 33 32 -17 c36 -18 110 -22 231 -12 97 8 119
29 120 115 4 185 4 186 -23 242 -22 45 -37 130 -24 130 2 0 40 -35 84 -79 354
-349 964 -287 1241 127 32 48 66 108 76 134 l18 48 352 0 353 0 46 -92 c71
-143 186 -263 325 -340 333 -186 762 -120 1006 154 l55 62 11 -29 c8 -22 7
-38 -5 -73 -44 -131 27 -229 148 -205 l48 10 67 -87 c37 -48 113 -148 169
-222 209 -274 416 -434 653 -503 98 -29 271 -27 370 3 189 60 342 173 430 319
72 118 119 327 120 526 0 82 -34 528 -45 590 -4 23 0 29 23 38 41 16 90 57
107 89 21 40 19 106 -5 155 -11 23 -55 73 -100 114 -90 81 -122 129 -144 215
-14 51 -14 62 -1 93 8 20 15 53 15 73 0 32 -6 44 -34 67 -34 28 -34 28 -50
168 -9 77 -18 214 -20 305 -4 188 -28 306 -96 462 -72 167 -224 363 -383 494
l-48 39 -20 135 c-34 238 -68 320 -168 411 -80 71 -82 73 -128 127 -76 90
-173 115 -428 114 -276 -2 -407 -36 -478 -124 -17 -23 -59 -69 -93 -104 -98
-101 -141 -206 -162 -394 l-7 -65 -624 -3 c-605 -2 -624 -3 -648 -22 -24 -19
-41 -20 -253 -20 -212 0 -229 1 -253 20 -25 20 -40 20 -646 20 l-620 0 -6 38
c-36 240 -64 312 -158 407 -38 39 -75 82 -82 96 -32 60 -112 108 -225 134 -73
16 -365 29 -435 19z m433 -68 c128 -32 184 -80 217 -185 l7 -25 -33 23 c-116
77 -239 106 -454 105 -183 0 -294 -19 -390 -64 -33 -16 -61 -27 -64 -25 -2 2
10 28 26 56 37 65 102 105 205 125 96 18 396 12 486 -10z m4414 14 c116 -13
188 -41 231 -89 33 -36 54 -77 45 -86 -2 -3 -32 7 -66 21 -106 43 -201 56
-387 57 -198 0 -294 -16 -397 -67 -38 -18 -68 -28 -68 -24 0 16 38 83 56 99
27 24 92 55 144 69 95 26 305 36 442 20z m-4454 -126 c85 -17 182 -58 238
-100 97 -74 149 -214 179 -486 l6 -57 -95 50 c-195 103 -361 143 -586 143
-207 0 -375 -36 -534 -116 l-58 -30 7 69 c4 37 13 104 21 149 40 233 141 334
379 379 101 19 348 19 443 -1z m4505 1 c196 -34 298 -108 348 -251 22 -63 57
-289 46 -300 -4 -4 -42 9 -84 29 -334 154 -752 143 -1083 -28 -46 -25 -85 -43
-87 -41 -6 6 28 232 43 286 46 161 147 254 319 294 101 23 105 23 266 25 91 0
179 -5 232 -14z m-5199 -67 c-4 -13 -25 -44 -46 -69 -52 -62 -83 -156 -104
-309 -8 -69 -20 -135 -25 -148 -8 -22 -35 -39 -44 -30 -7 6 31 286 45 340 19
70 70 157 118 199 51 44 67 49 56 17z m5507 -20 c94 -72 138 -195 174 -476 l7
-54 -30 16 c-17 9 -33 20 -37 25 -3 5 -12 58 -20 118 -27 199 -48 261 -114
337 -22 26 -41 54 -41 62 0 17 9 13 61 -28z m-4472 -37 c41 -52 77 -131 95
-211 19 -85 50 -339 42 -347 -3 -3 -14 1 -25 11 -13 12 -20 37 -25 84 -20 203
-53 328 -112 417 -18 28 -36 63 -40 79 -6 26 -5 27 14 17 11 -6 34 -28 51 -50z
m3436 20 c-8 -17 -19 -33 -25 -36 -42 -26 -99 -221 -115 -392 -5 -47 -13 -77
-23 -85 -14 -12 -15 -2 -9 92 11 199 48 320 122 408 44 51 74 59 50 13z m810
-365 c285 -72 514 -217 679 -430 115 -148 184 -289 228 -463 32 -127 32 -363
-1 -513 -57 -261 -181 -483 -372 -665 -174 -167 -354 -265 -591 -322 -114 -28
-402 -25 -521 5 -49 12 -90 22 -92 22 -2 0 -6 -23 -10 -52 -30 -213 -177 -428
-369 -538 -135 -77 -320 -112 -475 -92 -173 23 -308 86 -434 202 -120 111
-210 274 -238 434 -14 85 -7 249 15 331 81 293 330 516 639 570 43 7 71 17 70
23 -64 294 -32 584 92 834 183 369 517 613 930 678 108 16 337 4 450 -24z
m-4650 -18 c284 -43 572 -209 751 -432 145 -182 227 -366 264 -599 15 -94 8
-346 -13 -428 l-14 -57 75 -12 c293 -47 535 -254 628 -537 27 -81 29 -100 29
-233 0 -159 -8 -195 -70 -320 -221 -442 -827 -556 -1194 -223 -114 103 -202
258 -236 418 -10 44 -19 81 -20 83 -1 1 -40 -7 -86 -19 -120 -30 -351 -37
-479 -15 -518 90 -921 496 -1006 1011 -19 117 -14 307 10 423 50 234 172 458
339 626 258 258 634 373 1022 314z m1830 -98 c36 -18 59 -20 270 -20 211 0
233 2 268 20 36 19 56 20 657 20 l620 0 0 -40 c0 -22 -3 -40 -7 -40 -5 0 -37
-25 -73 -55 l-64 -55 -1436 0 -1435 1 -32 27 c-29 24 -33 35 -39 95 l-7 67
620 0 c599 0 620 -1 658 -20z m1645 -205 c-11 -13 -179 -15 -1405 -15 -1226 0
-1394 2 -1405 15 -11 13 146 15 1405 15 1259 0 1416 -2 1405 -15z m-101 -115
c-115 -151 -201 -351 -234 -544 -18 -108 -19 -315 -1 -416 8 -41 12 -77 9 -80
-2 -2 -42 -12 -89 -21 -57 -12 -122 -35 -192 -70 -96 -46 -117 -62 -207 -153
-86 -86 -108 -115 -148 -196 -57 -114 -86 -225 -92 -340 l-3 -85 -330 -3 -329
-2 -7 79 c-7 92 -45 229 -82 304 -109 217 -317 377 -560 432 -38 9 -74 17 -80
19 -8 3 -7 24 3 73 22 102 12 400 -16 508 -50 190 -136 361 -252 502 l-59 73
1365 0 1365 0 -61 -80z m-4755 -1007 c9 -59 63 -217 98 -288 91 -180 270 -386
423 -487 303 -198 650 -256 1017 -172 24 5 28 3 33 -22 25 -113 40 -158 73
-224 l37 -76 -17 -44 c-24 -65 -22 -102 13 -188 24 -60 30 -87 26 -125 -7 -75
-19 -78 -72 -19 -52 58 -95 70 -115 32 -14 -26 -1 -51 53 -107 24 -25 37 -47
34 -57 -7 -18 -84 -31 -140 -22 -132 21 -197 167 -131 292 15 27 32 65 39 84
11 33 15 35 95 52 93 21 110 30 110 63 0 42 -23 50 -107 36 -42 -7 -82 -15
-88 -17 -7 -3 -18 9 -25 26 -17 41 -85 98 -127 106 -35 7 -39 17 -23 59 12 32
-1 61 -31 70 -30 10 -56 -18 -73 -79 -13 -42 -22 -55 -48 -68 -139 -66 -174
-196 -124 -464 32 -175 32 -215 2 -280 -55 -117 -152 -184 -265 -184 -107 1
-181 39 -242 123 -36 50 -53 106 -52 177 1 58 24 130 42 130 5 0 27 -20 48
-45 42 -51 63 -61 93 -45 35 19 25 58 -31 122 l-50 58 65 132 c60 122 95 224
111 332 l6 38 23 -21 c25 -23 56 -27 74 -9 25 25 12 60 -49 129 -51 57 -67 69
-93 69 -17 1 -42 7 -56 15 -30 17 -71 19 -103 4 -42 -19 -61 -66 -65 -164 -5
-93 -15 -127 -51 -159 -31 -28 -35 -15 -15 47 18 57 15 83 -11 93 -21 8 -65
-4 -65 -17 0 -8 4 -8 14 1 22 17 61 9 64 -15 1 -11 -10 -58 -26 -105 -27 -81
-30 -85 -58 -85 -39 0 -42 26 -14 111 12 36 20 68 17 71 -3 3 -16 -29 -28 -71
-25 -85 -34 -91 -90 -53 -43 29 -79 92 -79 140 0 44 27 102 65 137 15 14 35
41 45 60 17 34 21 36 116 54 55 10 106 22 115 27 25 13 29 46 9 71 l-18 23
-83 -18 c-105 -22 -109 -21 -109 3 0 26 -26 78 -54 108 -45 50 -111 66 -153
37 -24 -17 -57 -96 -68 -162 -4 -24 -10 -43 -13 -43 -4 0 -26 22 -49 49 l-42
49 20 57 c35 101 77 286 114 500 19 115 35 212 35 215 1 17 18 -32 24 -67z
m6992 -61 c12 -110 12 -119 -6 -157 -33 -68 -56 -173 -44 -193 17 -26 66 -22
80 6 6 13 15 22 20 20 5 -2 18 -31 29 -64 28 -84 63 -134 137 -195 85 -70 111
-108 112 -163 1 -34 -5 -50 -24 -71 -35 -38 -73 -55 -119 -55 -52 0 -83 28
-116 102 l-25 58 28 6 c56 14 79 57 45 85 -15 13 -15 12 -2 -9 24 -38 3 -55
-99 -76 -98 -20 -122 -15 -122 25 0 22 10 28 74 45 l51 13 -45 -5 c-52 -7 -90
-28 -90 -50 0 -8 -8 -38 -17 -66 -14 -44 -15 -61 -5 -122 16 -92 75 -212 147
-296 65 -75 97 -152 93 -219 l-3 -46 -90 -20 c-108 -24 -115 -28 -115 -65 0
-44 26 -53 99 -36 34 8 63 11 66 6 10 -16 -77 -100 -133 -127 -49 -24 -69 -28
-142 -28 -73 0 -94 4 -148 29 -69 32 -124 86 -153 150 -28 61 -25 172 6 261
31 88 31 106 -1 144 -27 33 -27 33 28 45 29 6 43 34 33 65 -9 30 -32 33 -124
14 -62 -12 -92 -23 -110 -41 -13 -13 -38 -29 -55 -35 -83 -28 -116 -83 -116
-196 l0 -69 -42 -7 c-51 -8 -78 -30 -78 -60 0 -37 23 -48 82 -39 29 5 56 8 61
9 4 0 28 -44 53 -98 35 -73 46 -110 46 -146 0 -129 -131 -228 -253 -192 -66
20 -139 97 -139 148 0 13 9 8 38 -20 43 -42 61 -46 87 -17 24 26 14 48 -54
122 l-51 56 20 47 c31 73 44 172 32 241 -10 55 -8 65 24 159 40 115 37 145
-15 145 -34 0 -44 -11 -61 -65 -17 -54 -26 -62 -47 -43 -35 31 -83 48 -132 48
-117 0 -199 -38 -227 -105 -10 -24 -23 -35 -53 -44 -31 -9 -42 -18 -47 -38 -9
-35 25 -65 65 -57 33 7 38 -4 47 -112 6 -68 6 -72 -22 -103 -23 -26 -40 -34
-77 -38 -40 -5 -52 -2 -72 17 -32 30 -38 60 -20 110 21 60 18 109 -10 157
l-24 43 39 82 c21 46 46 118 56 161 l18 79 31 -7 c176 -38 379 -46 526 -20
482 84 887 470 1010 960 12 47 24 83 27 80 3 -3 11 -58 18 -123z m68 -160 c7
-20 -36 -165 -55 -188 -16 -19 -48 -18 -56 2 -7 20 12 102 38 162 14 33 23 42
43 42 15 0 27 -7 30 -18z m-6955 -401 c51 -36 91 -148 60 -167 -6 -4 -9 -19
-5 -36 7 -35 -19 -91 -59 -128 -15 -14 -36 -42 -46 -62 -49 -95 6 -229 103
-253 15 -4 34 -15 44 -26 27 -30 51 -23 107 34 80 80 80 80 87 185 4 57 14
110 23 128 19 37 66 59 104 49 40 -10 51 -22 46 -50 -4 -18 5 -36 31 -66 31
-37 36 -49 36 -94 0 -90 -64 -278 -137 -400 -26 -44 -33 -50 -59 -47 -21 2
-36 -4 -49 -18 -16 -18 -17 -25 -7 -54 10 -27 9 -41 -4 -77 -53 -146 8 -306
145 -376 118 -62 257 -39 350 57 89 92 105 174 71 351 -27 133 -32 295 -11
352 16 46 63 102 102 123 36 18 34 20 34 -22 0 -43 20 -60 58 -50 20 5 29 17
42 56 11 32 22 50 33 50 35 0 98 -41 124 -80 25 -40 26 -42 10 -70 -16 -27
-16 -30 6 -59 25 -34 22 -47 -24 -134 -23 -42 -26 -58 -22 -117 3 -52 9 -77
26 -100 l23 -31 -33 -42 c-137 -177 -333 -377 -449 -460 -81 -57 -204 -119
-284 -143 -95 -28 -249 -24 -350 9 -183 60 -332 182 -405 330 -63 128 -81 214
-87 412 -6 211 7 355 33 370 10 5 32 24 49 41 16 18 44 35 62 39 19 4 35 14
38 26 9 29 -3 69 -20 69 -18 0 -19 17 -4 130 34 271 53 343 96 370 25 14 77 5
112 -19z m-341 -60 c10 -5 41 -37 71 -71 43 -49 52 -65 47 -85 -12 -47 -48
-32 -115 46 -63 72 -69 87 -49 107 14 14 24 15 46 3z m599 -98 c7 -15 12 -28
10 -29 -1 -1 -40 -12 -85 -24 -90 -23 -116 -18 -110 24 2 17 16 24 68 38 92
23 103 22 117 -9z m6698 -72 c27 -51 45 -73 73 -87 l37 -20 22 -239 c12 -132
22 -306 22 -386 2 -403 -111 -624 -393 -766 -300 -151 -626 -64 -933 249 -45
46 -154 180 -243 298 -130 172 -160 218 -154 235 9 23 11 144 4 194 -5 34 -5
34 47 46 62 14 83 29 83 61 0 36 -38 56 -80 44 -72 -21 -79 -6 -22 50 27 27
51 40 90 49 144 30 237 -10 237 -103 0 -37 4 -43 32 -56 40 -18 44 -30 45
-123 0 -116 -35 -220 -71 -210 -21 5 -61 -28 -61 -51 0 -8 11 -28 25 -44 14
-17 25 -37 25 -46 0 -9 7 -33 16 -54 68 -164 291 -178 381 -25 41 71 37 136
-16 247 -23 49 -40 94 -37 101 2 7 18 15 35 18 22 5 32 14 37 33 11 43 -6 59
-62 59 l-49 0 -3 62 c-2 47 2 72 17 101 33 65 105 99 141 67 16 -14 30 -16 73
-11 45 6 57 4 79 -14 40 -31 42 -52 12 -137 -67 -196 -11 -354 155 -432 48
-22 69 -26 151 -26 83 0 101 3 145 27 53 27 131 100 140 129 3 10 19 22 34 27
36 13 48 45 28 75 -8 12 -16 51 -19 87 -7 82 -34 141 -104 221 -68 78 -109
161 -130 259 -13 59 -14 84 -5 115 l11 40 75 2 75 2 35 -68z m-7260 9 c30 -31
63 -38 83 -18 15 15 16 -12 2 -119 -17 -127 -13 -120 -78 -133 -100 -20 -121
-29 -129 -57 -4 -20 -1 -31 17 -45 12 -10 30 -16 39 -14 82 23 102 14 55 -23
-37 -29 -121 -29 -158 0 -51 40 -71 112 -45 162 6 12 37 60 69 107 31 47 67
104 80 128 13 23 27 42 30 42 3 0 19 -13 35 -30z m4005 -95 l0 -25 -327 0
c-181 0 -334 4 -342 9 -8 5 -11 16 -8 25 6 14 43 16 342 16 l335 0 0 -25z
m-3111 -51 c65 -69 74 -96 38 -118 -16 -9 -28 -1 -88 63 -71 77 -77 89 -57
109 23 23 46 11 107 -54z m3114 9 c3 -5 8 -27 12 -50 l7 -43 -357 0 -358 0 7
38 c3 20 6 43 6 50 0 9 75 12 339 12 187 0 342 -3 344 -7z m-2620 -71 c15 -16
14 -24 -11 -102 -15 -47 -31 -91 -35 -97 -11 -18 -42 -16 -58 3 -11 13 -8 30
15 102 25 77 45 112 66 112 4 0 14 -8 23 -18z m5335 -4 c17 -17 15 -46 -5 -56
-10 -5 -55 -18 -100 -27 -67 -14 -85 -15 -98 -5 -8 7 -15 18 -15 24 1 26 22
39 96 56 97 22 107 23 122 8z m-550 -14 c10 -18 -30 -166 -50 -191 -15 -18
-55 -16 -62 3 -7 17 38 169 56 191 15 18 45 16 56 -3z m-6085 -71 c3 -16 2
-31 -2 -35 -3 -4 -42 -16 -86 -27 -83 -21 -105 -17 -105 20 0 24 13 31 95 51
94 22 92 22 98 -9z m5721 -115 c17 -28 -12 -48 -104 -68 -90 -20 -106 -18
-116 12 -9 29 12 44 86 61 80 19 120 17 134 -5z m-4046 -51 c4 -32 2 -32 -108
-57 -76 -16 -83 -16 -102 0 -17 13 -19 20 -10 36 12 22 126 54 182 51 30 -2
35 -6 38 -30z m4642 -105 c0 -10 5 -23 11 -29 9 -9 0 -14 -32 -23 -24 -6 -60
-15 -79 -21 -50 -13 -58 -12 -71 12 -16 30 3 45 76 62 83 20 95 20 95 -1z
m878 -127 c11 -23 9 -26 -16 -36 -15 -6 -53 -16 -85 -24 -50 -12 -59 -11 -72
2 -33 33 -18 50 60 69 80 20 100 17 113 -11z m-6582 -92 c68 -72 78 -105 41
-127 -16 -9 -28 -1 -88 64 -38 41 -69 80 -69 87 0 14 28 43 41 43 6 0 39 -30
75 -67z m1153 -58 c28 -31 41 -53 39 -68 -5 -38 -37 -32 -85 15 -62 60 -69 75
-46 98 23 22 36 15 92 -45z m4272 -7 c70 -80 72 -84 59 -108 -18 -34 -45 -22
-109 49 -72 82 -81 121 -26 121 14 0 41 -22 76 -62z"/>
<path d="M6225 3931 c-11 -5 -29 -19 -40 -31 -19 -21 -20 -39 -23 -276 l-3
-254 -202 0 c-300 -1 -306 -2 -339 -39 l-28 -31 0 -271 c0 -275 3 -298 39
-326 12 -9 87 -12 274 -13 l257 0 0 -245 c0 -273 6 -305 56 -322 17 -5 143 -8
302 -5 243 4 275 6 295 22 21 18 22 25 27 282 l5 263 263 5 c262 5 264 5 283
29 18 22 19 43 19 307 l0 283 -24 28 -24 28 -261 3 -261 3 0 254 0 254 -24 28
-24 28 -274 2 c-150 1 -282 -1 -293 -6z m582 -33 c23 -21 23 -22 23 -285 l0
-263 262 0 c255 0 262 -1 285 -22 23 -21 23 -22 23 -300 l0 -279 -25 -24 -24
-25 -261 0 -260 0 0 -262 c0 -255 -1 -262 -22 -285 -21 -23 -22 -23 -303 -23
-227 0 -285 3 -301 14 -18 13 -19 32 -24 283 l-5 268 -268 5 c-251 5 -270 6
-283 24 -21 29 -21 573 0 602 13 18 32 19 283 24 l268 5 5 268 c5 251 6 270
24 283 16 11 74 14 300 14 273 0 280 0 303 -22z"/>
<path d="M6410 3765 c-62 -28 -102 -67 -127 -122 -52 -113 -13 -243 91 -308
44 -27 58 -30 126 -30 68 0 82 3 125 30 67 42 107 108 113 186 7 98 -31 176
-112 226 -52 33 -162 42 -216 18z m186 -14 c49 -22 111 -92 124 -140 37 -133
-40 -262 -174 -292 -111 -25 -228 44 -261 154 -19 63 -19 82 0 138 45 131 188
196 311 140z"/>
<path d="M5916 3256 c-163 -61 -216 -272 -97 -393 52 -54 104 -77 176 -77 196
0 310 224 195 383 -60 82 -182 121 -274 87z m176 -22 c169 -85 178 -311 15
-404 -201 -115 -420 102 -312 310 21 40 90 97 133 109 48 13 122 7 164 -15z"/>
<path d="M6893 3230 c-138 -79 -160 -260 -47 -374 40 -39 78 -57 138 -63 70
-7 129 11 177 54 42 38 79 100 79 130 -1 10 -7 1 -14 -19 -26 -74 -75 -123
-145 -147 -152 -50 -321 88 -297 242 19 117 111 197 226 197 118 0 197 -70
226 -200 7 -30 13 -44 13 -30 3 79 -49 168 -121 210 -44 25 -64 30 -118 30
-54 0 -74 -5 -117 -30z"/>
<path d="M6392 2724 c-146 -73 -178 -267 -62 -382 44 -44 82 -63 144 -69 103
-11 195 39 240 129 104 208 -114 426 -322 322z m203 -3 c76 -34 135 -123 135
-203 0 -73 -18 -117 -68 -167 -96 -95 -228 -96 -322 -1 -89 89 -94 215 -11
311 19 23 53 50 75 60 53 24 139 24 191 0z"/>
<path d="M5255 2480 c-270 -54 -476 -303 -475 -574 1 -258 185 -496 434 -562
67 -18 227 -18 296 1 131 35 254 121 328 230 75 110 104 203 103 340 0 266
-175 488 -437 555 -79 20 -177 24 -249 10z m268 -35 c184 -56 333 -211 382
-395 20 -74 19 -222 -1 -291 -57 -191 -214 -345 -401 -394 -92 -24 -221 -20
-310 10 -348 117 -493 507 -306 824 73 122 214 224 357 257 72 16 208 11 279
-11z"/>
<path d="M5291 2263 c-25 -27 -60 -69 -77 -94 -26 -38 -40 -48 -79 -58 -52
-13 -120 -45 -147 -69 -33 -28 -22 -75 37 -162 l55 -81 0 -82 c0 -108 13 -155
47 -168 30 -11 92 -1 171 29 l51 20 81 -29 c48 -17 102 -29 131 -29 48 0 51 2
65 35 9 22 14 69 14 129 l0 95 55 76 c58 81 76 135 54 161 -19 23 -97 60 -163
77 -32 9 -59 17 -60 19 -1 2 -19 29 -40 61 -46 69 -99 117 -128 117 -12 0 -41
-20 -67 -47z m118 1 c22 -19 56 -59 75 -89 34 -50 40 -54 108 -75 101 -30 147
-56 154 -84 7 -28 -19 -83 -73 -152 -38 -49 -38 -49 -43 -166 -4 -74 -11 -122
-19 -132 -20 -24 -85 -19 -180 14 -63 21 -89 26 -103 19 -42 -23 -169 -48
-193 -39 -31 12 -45 62 -45 165 0 78 -1 81 -44 143 -100 143 -88 175 85 231
59 19 69 27 97 70 40 61 107 131 127 131 8 0 33 -16 54 -36z"/>
<path d="M1683 3925 c-17 -7 -36 -22 -42 -34 -7 -12 -11 -110 -11 -270 l0
-251 -239 0 c-148 0 -250 -4 -270 -11 -58 -20 -61 -39 -61 -334 0 -278 5 -313
45 -329 9 -3 131 -6 271 -6 l254 0 0 -256 c0 -163 4 -263 11 -275 22 -43 56
-47 338 -42 266 4 302 9 318 42 4 9 10 131 13 271 l5 255 265 5 c146 3 266 7
267 8 1 1 9 15 18 32 22 43 22 547 0 590 -23 44 -63 50 -322 50 l-233 0 0 245
c0 273 -4 294 -61 314 -49 17 -525 14 -566 -4z m593 -26 c17 -19 19 -42 22
-285 l3 -264 258 0 c238 0 261 -1 282 -19 l23 -18 1 -288 0 -287 -24 -19 c-21
-18 -42 -19 -282 -19 l-258 0 -3 -266 c-3 -266 -3 -266 -27 -285 -22 -18 -42
-19 -303 -19 l-279 0 -24 25 -25 24 0 261 0 260 -260 0 c-246 0 -261 1 -280
20 -11 11 -22 30 -25 42 -3 13 -5 141 -3 285 3 240 5 263 22 282 18 20 28 21
283 21 l263 0 0 259 c0 246 1 260 21 285 l20 26 288 0 c280 0 288 -1 307 -21z"/>
<path d="M1918 3816 c-38 -29 -58 -54 -58 -71 0 -2 7 -11 16 -19 11 -12 36
-16 98 -16 95 0 123 13 113 52 -7 25 -84 88 -110 88 -8 0 -34 -16 -59 -34z
m116 -11 c27 -21 46 -44 46 -55 0 -19 -7 -20 -100 -20 -92 0 -100 2 -100 19 0
19 75 90 96 91 6 0 32 -16 58 -35z"/>
<path d="M1809 3661 c-29 -29 -29 -31 -29 -144 0 -130 2 -135 112 -234 79 -72
90 -71 191 26 l82 79 0 127 c0 126 0 127 -28 151 -27 23 -35 24 -163 24 l-136
0 -29 -29z m318 -5 c28 -24 28 -26 28 -140 l0 -115 -60 -61 c-77 -78 -118
-105 -142 -91 -10 5 -49 42 -88 81 l-70 71 0 115 c0 114 0 116 28 140 26 23
35 24 152 24 117 0 126 -1 152 -24z"/>
<path d="M1339 3191 l-29 -29 0 -137 0 -137 29 -29 c29 -29 30 -29 147 -29
l118 0 83 83 c109 109 109 113 0 223 l-83 84 -118 0 c-117 0 -118 0 -147 -29z
m263 8 c33 -17 158 -155 158 -175 0 -9 -36 -53 -80 -98 l-79 -81 -115 0 c-107
0 -117 2 -138 23 -22 21 -23 30 -23 158 l0 136 28 24 c26 22 37 24 127 24 55
0 109 -5 122 -11z"/>
<path d="M2324 3210 c-35 -14 -156 -157 -156 -185 0 -15 19 -46 50 -82 96
-110 90 -108 208 -111 119 -4 146 0 174 28 18 18 20 34 20 163 -1 148 -4 163
-47 185 -25 14 -217 15 -249 2z m267 -29 c17 -20 19 -40 19 -155 -1 -141 -5
-157 -54 -176 -39 -15 -181 -12 -219 4 -39 16 -157 147 -157 173 0 22 123 161
154 174 12 5 70 8 129 6 101 -2 110 -4 128 -26z"/>
<path d="M1219 3128 c-27 -22 -69 -84 -69 -101 0 -27 53 -95 83 -108 22 -9 31
-9 40 0 14 14 20 143 9 186 -9 33 -37 44 -63 23z m49 -101 c3 -91 1 -97 -17
-97 -18 0 -91 76 -91 95 0 4 16 30 36 57 55 75 68 65 72 -55z"/>
<path d="M2667 3133 c-4 -3 -7 -53 -7 -109 0 -94 2 -103 20 -109 27 -9 46 4
85 59 32 45 33 50 20 75 -33 65 -95 108 -118 84z m77 -47 c20 -23 36 -50 36
-58 0 -8 -14 -33 -31 -56 -21 -29 -38 -42 -55 -42 -24 0 -24 1 -24 93 0 52 3
97 7 100 15 15 33 5 67 -37z"/>
<path d="M1940 2813 c-14 -9 -56 -47 -93 -84 l-69 -67 4 -127 c4 -169 -1 -165
192 -165 189 1 196 7 196 172 0 84 -4 109 -19 134 -22 36 -155 154 -174 154
-7 0 -24 -7 -37 -17z m137 -77 l78 -74 0 -117 c0 -116 0 -117 -28 -141 -26
-22 -36 -24 -147 -24 -67 0 -130 5 -144 11 -38 18 -48 56 -44 169 l3 101 76
74 c55 54 84 75 102 75 18 0 49 -22 104 -74z"/>
<path d="M1864 2325 c-11 -28 6 -60 51 -92 24 -18 49 -33 56 -33 6 0 34 16 61
36 43 32 49 40 46 68 l-3 31 -103 3 c-85 2 -103 0 -108 -13z m206 -18 c0 -26
-67 -87 -95 -87 -24 0 -93 51 -101 74 -9 28 13 36 109 36 85 0 87 -1 87 -23z"/>
<path d="M2983 2475 c-189 -41 -340 -173 -419 -365 -33 -79 -44 -237 -24 -329
41 -192 196 -362 389 -428 81 -28 235 -31 325 -8 92 24 194 83 262 151 178
178 223 444 112 672 -45 93 -168 216 -262 261 -122 58 -254 74 -383 46z m239
-20 c112 -23 193 -68 279 -154 142 -142 195 -320 154 -514 -53 -252 -283 -437
-543 -437 -164 0 -282 49 -398 165 -220 221 -219 567 2 788 134 135 323 191
506 152z"/>
<path d="M3041 2254 c-22 -26 -53 -65 -67 -88 -24 -38 -35 -45 -100 -65 -99
-31 -138 -58 -142 -98 -4 -36 24 -96 74 -162 33 -42 34 -47 34 -135 0 -166 31
-189 189 -141 l88 27 69 -25 c90 -32 147 -41 173 -28 28 16 42 77 40 174 l-2
82 51 68 c59 77 80 133 63 165 -13 24 -94 64 -169 83 -48 12 -58 19 -87 64
-57 84 -102 125 -140 125 -27 0 -41 -9 -74 -46z m149 -13 c25 -27 54 -65 65
-85 18 -32 28 -39 100 -61 87 -27 142 -56 152 -81 8 -21 -27 -91 -78 -159
l-41 -54 -1 -111 c-2 -106 -3 -113 -27 -132 -29 -23 -57 -20 -173 19 l-77 27
-63 -22 c-34 -12 -82 -25 -107 -28 -71 -9 -84 12 -90 145 l-5 106 -52 79 c-56
84 -65 122 -35 149 22 20 116 62 160 72 23 5 41 19 63 53 51 76 110 132 138
132 17 0 40 -16 71 -49z"/>
<path d="M3920 3730 c-44 -44 -15 -154 75 -289 l54 -81 -34 -26 c-49 -37 -79
-103 -73 -164 12 -125 136 -210 306 -210 131 1 230 53 278 148 40 79 24 150
-50 221 l-35 34 44 62 c97 136 132 258 85 305 -28 28 -44 25 -90 -16 -44 -40
-72 -104 -99 -228 l-17 -80 -119 0 -118 0 -18 89 c-23 111 -70 210 -112 236
-40 24 -52 24 -77 -1z m86 -25 c37 -37 73 -124 94 -226 11 -50 21 -93 23 -95
1 -2 21 1 43 7 37 11 143 7 192 -7 19 -6 22 -3 22 23 0 39 34 173 58 226 56
124 155 131 138 10 -7 -52 -59 -156 -116 -231 l-40 -52 41 -37 c52 -47 69 -81
69 -138 0 -54 -16 -88 -62 -132 -57 -55 -120 -77 -223 -78 -81 0 -97 3 -157
32 -153 72 -181 226 -57 323 l39 31 -42 57 c-89 120 -135 242 -109 291 16 29
56 27 87 -4z"/>
<path d="M4036 3208 c-21 -29 -20 -41 2 -61 38 -35 92 -13 92 37 0 44 -68 61
-94 24z m76 -13 c14 -32 -5 -57 -41 -53 -20 2 -27 9 -29 32 -6 48 50 65 70 21z"/>
<path d="M4382 3218 c-7 -7 -12 -24 -12 -38 0 -14 5 -31 12 -38 7 -7 24 -12
38 -12 14 0 31 5 38 12 7 7 12 24 12 38 0 14 -5 31 -12 38 -7 7 -24 12 -38 12
-14 0 -31 -5 -38 -12z m68 -13 c26 -32 -13 -81 -47 -59 -35 22 -23 74 17 74
10 0 23 -7 30 -15z"/>
<path d="M4207 3110 c10 -11 10 -17 0 -29 -10 -12 -9 -14 8 -7 24 10 34 10 60
1 19 -6 19 -6 2 8 -18 15 -18 16 0 27 17 11 17 11 -2 5 -25 -9 -35 -9 -60 0
-16 7 -18 5 -8 -5z"/>
<path d="M4767 3127 c-15 -10 -17 -27 -15 -112 l3 -100 30 -3 c27 -3 365 71
386 84 12 7 12 41 0 48 -4 3 -86 24 -182 46 -96 22 -181 43 -190 45 -8 3 -23
-1 -32 -8z m214 -47 c173 -40 202 -51 183 -70 -14 -14 -369 -94 -387 -87 -14
5 -17 22 -17 95 0 49 3 92 7 95 11 12 35 8 214 -33z"/>
<path d="M3407 3102 c-12 -13 -17 -37 -17 -84 0 -96 4 -98 182 -98 175 0 178
2 178 103 0 96 -1 97 -179 97 -131 0 -150 -2 -164 -18z m323 -11 c16 -32 12
-122 -7 -143 -14 -16 -33 -18 -151 -18 -163 0 -172 4 -172 87 0 94 -2 93 170
93 137 0 150 -2 160 -19z"/>
<path d="M4144 2806 c-146 -68 -177 -260 -62 -376 140 -140 382 -49 396 149
13 181 -168 304 -334 227z m170 3 c55 -15 128 -91 145 -151 21 -75 1 -158 -53
-216 -64 -72 -189 -88 -273 -36 -70 43 -106 108 -107 187 -1 155 137 258 288
216z"/>
<path d="M752 2493 c-12 -10 -32 -56 -47 -107 -26 -89 -26 -89 -7 -109 14 -14
27 -18 45 -13 22 5 30 20 59 107 l33 101 -24 19 c-29 23 -34 23 -59 2z m52 -9
c20 -20 21 -15 -10 -109 -30 -90 -39 -105 -64 -105 -39 0 -42 24 -15 117 32
106 55 131 89 97z"/>
<path d="M1501 1419 c-95 -21 -113 -32 -109 -67 5 -43 27 -48 130 -28 51 10
98 22 105 28 18 14 16 53 -3 72 -19 19 -17 19 -123 -5z m102 -26 c6 -34 6 -34
-87 -57 -87 -22 -109 -18 -104 21 3 25 9 28 78 44 104 24 107 23 113 -8z"/>
<path d="M1533 974 c-17 -8 -65 -165 -61 -200 2 -23 9 -30 31 -32 16 -2 34 1
41 7 6 5 25 51 41 101 22 69 27 95 19 108 -11 17 -48 25 -71 16z m58 -20 c11
-13 8 -30 -17 -107 -29 -88 -32 -92 -60 -92 -21 0 -30 5 -32 20 -4 20 35 161
51 183 13 17 42 15 58 -4z"/>
<path d="M7788 2103 c6 -2 18 -2 25 0 6 3 1 5 -13 5 -14 0 -19 -2 -12 -5z"/>
<path d="M7307 2072 c-27 -29 -21 -46 41 -115 66 -74 94 -92 123 -77 39 21 25
64 -47 140 -69 73 -90 82 -117 52z m171 -146 c-2 -10 -11 -24 -20 -30 -20 -12
-37 2 -100 77 l-40 47 23 19 24 20 58 -57 c37 -37 57 -64 55 -76z"/>
<path d="M7552 1668 c-24 -24 -11 -54 51 -119 66 -70 59 -56 -12 24 -49 55
-53 90 -10 95 21 2 37 -10 88 -67 67 -75 72 -97 31 -118 -16 -8 -19 -13 -9
-13 20 0 49 31 49 52 0 9 -30 48 -66 87 -66 71 -96 85 -122 59z"/>
<path d="M7311 1434 c-22 -16 -74 -162 -69 -196 4 -29 50 -47 72 -28 22 18 70
174 62 204 -7 29 -38 39 -65 20z m59 -37 c0 -12 -13 -58 -28 -102 -21 -63 -32
-81 -48 -83 -11 -2 -27 4 -34 13 -11 13 -9 30 14 103 14 48 34 92 43 99 22 17
53 -1 53 -30z"/>
</g>
</svg>
